# xmcd
#
# Track frame offsets: 
#        150
#        18190
#        38166
#        56316
#        74615
#        92205
#        104336
#        120077
#        138969
#        157343
#        172525
#        176121
#
# Disc length: 2591 seconds
#
# Revision: 1
# Processed by: cddbd v1.5.2PL0 Copyright (c) Steve Scherf et al.
# Submitted via: ExactAudioCopy v1.0b3
#
DISCID=950a1d0c
DTITLE=Ryan Turner - Rollin Up My Sleeves
DYEAR=2005
DGENRE=Country
TTITLE0=My Days My Way
TTITLE1=Back in Your Arms
TTITLE2=The Heart Has a Mind of Its Own
TTITLE3=Julie's Gonna Dance
TTITLE4=A Real Good Day
TTITLE5=My Side of Town
TTITLE6=Same Old Thing
TTITLE7=She's No Amy
TTITLE8=What's It Gonna Be?
TTITLE9=Would You Run?
TTITLE10=Rollin' Up My Sleeves (Intro)
TTITLE11=Rollin' Up My Sleeves
EXTD=YEAR: 2005
EXTT0=
EXTT1=
EXTT2=
EXTT3=
EXTT4=
EXTT5=
EXTT6=
EXTT7=
EXTT8=
EXTT9=
EXTT10=
EXTT11=
PLAYORDER=
